<?xml version="1.0" encoding="UTF-8" standalone="no"?>
<!DOCTYPE svg PUBLIC "-//W3C//DTD SVG 1.1//EN" "http://www.w3.org/Graphics/SVG/1.1/DTD/svg11.dtd">
<svg width="100%" height="100%" viewBox="0 0 2048 780" version="1.1" xmlns="http://www.w3.org/2000/svg" xmlns:xlink="http://www.w3.org/1999/xlink" xml:space="preserve" xmlns:serif="http://www.serif.com/" style="fill-rule:evenodd;clip-rule:evenodd;stroke-linejoin:round;stroke-miterlimit:2;">
    <g id="text">
        <g id="l" transform="matrix(1.93112,0,0,1.93112,-967.991,-394.619)">
            <path d="M1532.38,480C1522.83,480 1514.62,476.649 1507.76,469.948C1501.06,463.08 1497.7,454.871 1497.7,445.322L1497.7,286.257L1530.88,286.257L1530.88,438.286C1530.88,442.977 1531.13,445.657 1531.63,446.327C1532.3,446.83 1534.9,447.081 1539.42,447.081L1561.78,447.081L1561.78,480L1532.38,480Z" style="fill:rgb(81,78,204);fill-rule:nonzero;"/>
        </g>
        <g id="a" transform="matrix(1.93112,0,0,1.93112,-967.991,-394.619)">
            <path d="M1025.28,480C1015.73,480 1007.52,476.649 1000.66,469.948C993.956,463.08 990.605,454.871 990.605,445.322L990.605,390.541L1105.69,390.541L1105.69,375.967C1105.69,371.276 1105.36,368.679 1104.69,368.177C1104.19,367.507 1101.59,367.172 1096.9,367.172L990.605,367.172L990.605,334.253L1103.94,334.253C1113.49,334.253 1121.61,337.687 1128.31,344.556C1135.18,351.257 1138.61,359.382 1138.61,368.931L1138.61,480L1025.28,480ZM1032.32,447.081L1105.69,447.081L1105.69,420.193L1023.52,420.193L1023.52,438.286C1023.52,442.977 1023.77,445.657 1024.28,446.327C1024.95,446.83 1027.63,447.081 1032.32,447.081Z" style="fill:rgb(81,78,204);fill-rule:nonzero;"/>
        </g>
        <g id="i" transform="matrix(1.93112,0,0,1.93112,-967.991,-394.619)">
            <path d="M1275.57,480L1275.57,334.253L1308.49,334.253L1308.49,480L1275.57,480ZM1275.57,319.678L1275.57,286.508L1308.49,286.508L1308.49,319.678L1275.57,319.678Z" style="fill:rgb(81,78,204);fill-rule:nonzero;"/>
        </g>
        <g id="t" transform="matrix(1.93112,0,0,1.93112,-967.991,-394.619)">
            <path d="M1199.93,480C1190.38,480 1182.17,476.649 1175.3,469.948C1168.6,463.08 1165.25,454.871 1165.25,445.322L1165.25,289.523L1198.17,289.523L1198.17,334.253L1254.96,334.253L1254.96,367.172L1198.17,367.172L1198.17,438.286C1198.17,442.977 1198.42,445.657 1198.92,446.327C1199.59,446.83 1202.27,447.081 1206.96,447.081L1254.96,447.081L1254.96,480L1199.93,480Z" style="fill:rgb(81,78,204);fill-rule:nonzero;"/>
        </g>
        <g id="a1" serif:id="a" transform="matrix(1.93112,0,0,1.93112,-967.991,-394.619)">
            <path d="M1363.52,480C1353.97,480 1345.76,476.649 1338.89,469.948C1332.19,463.08 1328.84,454.871 1328.84,445.322L1328.84,390.541L1443.93,390.541L1443.93,375.967C1443.93,371.276 1443.59,368.679 1442.92,368.177C1442.42,367.507 1439.83,367.172 1435.13,367.172L1328.84,367.172L1328.84,334.253L1442.17,334.253C1451.72,334.253 1459.84,337.687 1466.55,344.556C1473.41,351.257 1476.85,359.382 1476.85,368.931L1476.85,480L1363.52,480ZM1370.55,447.081L1443.93,447.081L1443.93,420.193L1361.76,420.193L1361.76,438.286C1361.76,442.977 1362.01,445.657 1362.51,446.327C1363.18,446.83 1365.86,447.081 1370.55,447.081Z" style="fill:rgb(81,78,204);fill-rule:nonzero;"/>
        </g>
        <g id="p" transform="matrix(1.93112,0,0,1.93112,-967.991,-394.619)">
            <path d="M824.252,537.796L824.252,334.253L937.583,334.253C947.132,334.253 955.257,337.687 961.958,344.556C968.827,351.257 972.261,359.382 972.261,368.931L972.261,445.322C972.261,454.871 968.827,463.08 961.958,469.948C955.257,476.649 947.132,480 937.583,480L857.171,480L857.171,537.796L824.252,537.796ZM865.966,447.081L930.547,447.081C935.238,447.081 937.835,446.83 938.337,446.327C939.007,445.657 939.342,442.977 939.342,438.286L939.342,375.967C939.342,371.276 939.007,368.679 938.337,368.177C937.835,367.507 935.238,367.172 930.547,367.172L865.966,367.172C861.275,367.172 858.595,367.507 857.925,368.177C857.422,368.679 857.171,371.276 857.171,375.967L857.171,438.286C857.171,442.977 857.422,445.657 857.925,446.327C858.595,446.83 861.275,447.081 865.966,447.081Z" style="fill:rgb(81,78,204);fill-rule:nonzero;"/>
        </g>
        <g id="S" transform="matrix(0.702806,0,0,0.695132,3.60155,65.7871)">
            <path d="M401.001,670C372.614,670 348.184,659.995 327.708,639.985C307.698,619.51 297.693,595.079 297.693,566.693L297.693,519.925L405.887,519.925L405.887,561.108L690.68,561.108L690.68,473.157L401.001,473.157C372.614,473.157 348.184,463.152 327.708,443.142C307.698,422.667 297.693,398.236 297.693,369.85L297.693,270.731C297.693,242.344 307.698,218.146 327.708,198.136C348.184,177.661 372.614,167.423 401.001,167.423L696.963,167.423C724.883,167.423 749.082,177.661 769.557,198.136C790.032,218.146 800.27,242.344 800.27,270.731L800.27,317.498L690.68,317.498L690.68,276.315L405.887,276.315L405.887,364.266L696.963,364.266C724.883,364.266 749.082,374.504 769.557,394.979C790.032,414.989 800.27,439.187 800.27,467.573L800.27,566.693C800.27,595.079 790.032,619.51 769.557,639.985C749.082,659.995 724.883,670 696.963,670L401.001,670Z" style="fill:rgb(81,78,204);"/>
        </g>
    </g>
    <g id="arrows">
        <g id="arrow_ne" transform="matrix(0.702806,0,0,0.695132,3.60155,65.7871)">
            <path d="M997.475,227.861L1021.01,139.051L857.96,234.228L819.159,223.717L829.556,184.487L992.812,89.191L590.605,-19.77L605.308,-75.249L1101.03,59.045L1056.29,227.861L997.475,227.861Z" style="fill:rgb(81,78,204);"/>
        </g>
        <g id="arrow_s" transform="matrix(0.702806,0,0,0.695132,3.60155,65.7871)">
            <path d="M844.409,726.994L548.926,1025.74L187.399,660.221L227.568,619.608L520.403,915.676L520.403,725.322L548.807,696.604L577.212,725.322L577.212,915.915L844.409,645.768L844.409,726.994Z" style="fill:rgb(81,78,204);"/>
        </g>
        <g id="arrow_nw" transform="matrix(0.702806,0,0,0.695132,3.60155,65.7871)">
            <path d="M490.791,-74.809L505.494,-19.33L105.474,89.038L268.525,184.215L278.922,223.444L240.121,233.956L76.865,138.659L184.636,545.306L129.763,560.172L-3.064,58.98L490.791,-74.809Z" style="fill:rgb(81,78,204);"/>
        </g>
    </g>
</svg>
